<?xml version="1.0" encoding="UTF-8"?>
<svg width="700pt" height="700pt" version="1.1" viewBox="0 0 700 700" xmlns="http://www.w3.org/2000/svg" xmlns:xlink="http://www.w3.org/1999/xlink">
 <defs>
  <symbol id="w" overflow="visible">
   <path d="m18.766-1.125c-0.96875 0.5-1.9805 0.875-3.0312 1.125-1.043 0.25781-2.1367 0.39062-3.2812 0.39062-3.3984 0-6.0898-0.94531-8.0781-2.8438-1.9922-1.9062-2.9844-4.4844-2.9844-7.7344 0-3.2578 0.99219-5.8359 2.9844-7.7344 1.9883-1.9062 4.6797-2.8594 8.0781-2.8594 1.1445 0 2.2383 0.13281 3.2812 0.39062 1.0508 0.25 2.0625 0.625 3.0312 1.125v4.2188c-0.98047-0.65625-1.9453-1.1406-2.8906-1.4531-0.94922-0.3125-1.9492-0.46875-3-0.46875-1.875 0-3.3516 0.60547-4.4219 1.8125-1.0742 1.1992-1.6094 2.8555-1.6094 4.9688 0 2.1055 0.53516 3.7617 1.6094 4.9688 1.0703 1.1992 2.5469 1.7969 4.4219 1.7969 1.0508 0 2.0508-0.14844 3-0.45312 0.94531-0.3125 1.9102-0.80078 2.8906-1.4688z"/>
  </symbol>
  <symbol id="c" overflow="visible">
   <path d="m13.734-11.141c-0.4375-0.19531-0.87109-0.34375-1.2969-0.4375-0.41797-0.10156-0.83984-0.15625-1.2656-0.15625-1.2617 0-2.2305 0.40625-2.9062 1.2188-0.67969 0.80469-1.0156 1.9531-1.0156 3.4531v7.0625h-4.8906v-15.312h4.8906v2.5156c0.625-1 1.3438-1.7266 2.1562-2.1875 0.82031-0.46875 1.8008-0.70312 2.9375-0.70312 0.16406 0 0.34375 0.011719 0.53125 0.03125 0.19531 0.011719 0.47656 0.039062 0.84375 0.078125z"/>
  </symbol>
  <symbol id="b" overflow="visible">
   <path d="m17.641-7.7031v1.4062h-11.453c0.125 1.1484 0.53906 2.0078 1.25 2.5781 0.70703 0.57422 1.7031 0.85938 2.9844 0.85938 1.0312 0 2.082-0.14844 3.1562-0.45312 1.082-0.3125 2.1914-0.77344 3.3281-1.3906v3.7656c-1.1562 0.4375-2.3125 0.76562-3.4688 0.98438-1.1562 0.22656-2.3125 0.34375-3.4688 0.34375-2.7734 0-4.9297-0.70312-6.4688-2.1094-1.5312-1.4062-2.2969-3.3789-2.2969-5.9219 0-2.5 0.75391-4.4609 2.2656-5.8906 1.5078-1.4375 3.582-2.1562 6.2188-2.1562 2.4062 0 4.332 0.73047 5.7812 2.1875 1.4453 1.4492 2.1719 3.3828 2.1719 5.7969zm-5.0312-1.625c0-0.92578-0.27344-1.6719-0.8125-2.2344-0.54297-0.57031-1.25-0.85938-2.125-0.85938-0.94922 0-1.7188 0.26562-2.3125 0.79688s-0.96484 1.2969-1.1094 2.2969z"/>
  </symbol>
  <symbol id="f" overflow="visible">
   <path d="m9.2188-6.8906c-1.0234 0-1.793 0.17188-2.3125 0.51562-0.51172 0.34375-0.76562 0.85547-0.76562 1.5312 0 0.625 0.20703 1.1172 0.625 1.4688 0.41406 0.34375 0.98828 0.51562 1.7188 0.51562 0.92578 0 1.7031-0.32812 2.3281-0.98438 0.63281-0.66406 0.95312-1.4922 0.95312-2.4844v-0.5625zm7.4688-1.8438v8.7344h-4.9219v-2.2656c-0.65625 0.92969-1.3984 1.6055-2.2188 2.0312-0.82422 0.41406-1.8242 0.625-3 0.625-1.5859 0-2.8711-0.45703-3.8594-1.375-0.99219-0.92578-1.4844-2.1289-1.4844-3.6094 0-1.7891 0.61328-3.1016 1.8438-3.9375 1.2383-0.84375 3.1797-1.2656 5.8281-1.2656h2.8906v-0.39062c0-0.76953-0.30859-1.332-0.92188-1.6875-0.61719-0.36328-1.5703-0.54688-2.8594-0.54688-1.0547 0-2.0312 0.10547-2.9375 0.3125-0.89844 0.21094-1.7305 0.52344-2.5 0.9375v-3.7344c1.0391-0.25 2.0859-0.44141 3.1406-0.57812 1.0625-0.13281 2.125-0.20312 3.1875-0.20312 2.7578 0 4.75 0.54688 5.9688 1.6406 1.2266 1.0859 1.8438 2.8555 1.8438 5.3125z"/>
  </symbol>
  <symbol id="d" overflow="visible">
   <path d="m7.7031-19.656v4.3438h5.0469v3.5h-5.0469v6.5c0 0.71094 0.14062 1.1875 0.42188 1.4375s0.83594 0.375 1.6719 0.375h2.5156v3.5h-4.1875c-1.9375 0-3.3125-0.39844-4.125-1.2031-0.80469-0.8125-1.2031-2.1797-1.2031-4.1094v-6.5h-2.4219v-3.5h2.4219v-4.3438z"/>
  </symbol>
  <symbol id="j" overflow="visible">
   <path d="m12.766-13.078v-8.2031h4.9219v21.281h-4.9219v-2.2188c-0.66797 0.90625-1.4062 1.5703-2.2188 1.9844s-1.7578 0.625-2.8281 0.625c-1.8867 0-3.4336-0.75-4.6406-2.25-1.2109-1.5-1.8125-3.4258-1.8125-5.7812 0-2.3633 0.60156-4.2969 1.8125-5.7969 1.207-1.5 2.7539-2.25 4.6406-2.25 1.0625 0 2 0.21484 2.8125 0.64062 0.82031 0.42969 1.5664 1.0859 2.2344 1.9688zm-3.2188 9.9219c1.0391 0 1.8359-0.37891 2.3906-1.1406 0.55078-0.76953 0.82812-1.8828 0.82812-3.3438 0-1.457-0.27734-2.5664-0.82812-3.3281-0.55469-0.76953-1.3516-1.1562-2.3906-1.1562-1.043 0-1.8398 0.38672-2.3906 1.1562-0.55469 0.76172-0.82812 1.8711-0.82812 3.3281 0 1.4609 0.27344 2.5742 0.82812 3.3438 0.55078 0.76172 1.3477 1.1406 2.3906 1.1406z"/>
  </symbol>
  <symbol id="e" overflow="visible">
   <path d="m10.5-3.1562c1.0508 0 1.8516-0.37891 2.4062-1.1406 0.55078-0.76953 0.82812-1.8828 0.82812-3.3438 0-1.457-0.27734-2.5664-0.82812-3.3281-0.55469-0.76953-1.3555-1.1562-2.4062-1.1562-1.0547 0-1.8594 0.38672-2.4219 1.1562-0.55469 0.77344-0.82812 1.8828-0.82812 3.3281 0 1.4492 0.27344 2.5586 0.82812 3.3281 0.5625 0.77344 1.3672 1.1562 2.4219 1.1562zm-3.25-9.9219c0.67578-0.88281 1.4219-1.5391 2.2344-1.9688 0.82031-0.42578 1.7656-0.64062 2.8281-0.64062 1.8945 0 3.4453 0.75 4.6562 2.25 1.207 1.5 1.8125 3.4336 1.8125 5.7969 0 2.3555-0.60547 4.2812-1.8125 5.7812-1.2109 1.5-2.7617 2.25-4.6562 2.25-1.0625 0-2.0078-0.21094-2.8281-0.625-0.8125-0.42578-1.5586-1.0859-2.2344-1.9844v2.2188h-4.8906v-21.281h4.8906z"/>
  </symbol>
  <symbol id="i" overflow="visible">
   <path d="m0.34375-15.312h4.8906l4.125 10.391 3.5-10.391h4.8906l-6.4375 16.766c-0.64844 1.6953-1.4023 2.8828-2.2656 3.5625-0.86719 0.6875-2 1.0312-3.4062 1.0312h-2.8438v-3.2188h1.5312c0.83203 0 1.4375-0.13672 1.8125-0.40625 0.38281-0.26172 0.67969-0.73047 0.89062-1.4062l0.14062-0.42188z"/>
  </symbol>
  <symbol id="h" overflow="visible">
   <path d="m2.5781-20.406h5.25v7.7656h7.7656v-7.7656h5.2656v20.406h-5.2656v-8.6562h-7.7656v8.6562h-5.25z"/>
  </symbol>
  <symbol id="v" overflow="visible">
   <path d="m14.953-3.7188h-8.2188l-1.3125 3.7188h-5.2812l7.5625-20.406h6.2656l7.5625 20.406h-5.2812zm-6.9062-3.7812h5.5781l-2.7812-8.125z"/>
  </symbol>
  <symbol id="u" overflow="visible">
   <path d="m2.3594-21.281h4.8906v21.281h-4.8906z"/>
  </symbol>
  <symbol id="a" overflow="visible">
   <path d="m9.6406-12.188c-1.0859 0-1.9141 0.39062-2.4844 1.1719-0.57422 0.78125-0.85938 1.9062-0.85938 3.375s0.28516 2.5938 0.85938 3.375c0.57031 0.77344 1.3984 1.1562 2.4844 1.1562 1.0625 0 1.875-0.38281 2.4375-1.1562 0.57031-0.78125 0.85938-1.9062 0.85938-3.375s-0.28906-2.5938-0.85938-3.375c-0.5625-0.78125-1.375-1.1719-2.4375-1.1719zm0-3.5c2.6328 0 4.6914 0.71484 6.1719 2.1406 1.4766 1.418 2.2188 3.3867 2.2188 5.9062 0 2.5117-0.74219 4.4805-2.2188 5.9062-1.4805 1.418-3.5391 2.125-6.1719 2.125-2.6484 0-4.7148-0.70703-6.2031-2.125-1.4922-1.4258-2.2344-3.3945-2.2344-5.9062 0-2.5195 0.74219-4.4883 2.2344-5.9062 1.4883-1.4258 3.5547-2.1406 6.2031-2.1406z"/>
  </symbol>
  <symbol id="t" overflow="visible">
   <path d="m20.922-1.5156c-1.3125 0.63672-2.6797 1.1172-4.0938 1.4375-1.4062 0.3125-2.8672 0.46875-4.375 0.46875-3.3984 0-6.0898-0.94531-8.0781-2.8438-1.9922-1.9062-2.9844-4.4844-2.9844-7.7344 0-3.2891 1.0078-5.8789 3.0312-7.7656 2.0312-1.8828 4.8047-2.8281 8.3281-2.8281 1.3516 0 2.6484 0.13281 3.8906 0.39062 1.25 0.25 2.4258 0.625 3.5312 1.125v4.2188c-1.1484-0.64453-2.2812-1.125-3.4062-1.4375-1.125-0.32031-2.25-0.48438-3.375-0.48438-2.1055 0-3.7266 0.58984-4.8594 1.7656-1.125 1.168-1.6875 2.8398-1.6875 5.0156 0 2.1562 0.54688 3.8242 1.6406 5 1.0938 1.1797 2.6445 1.7656 4.6562 1.7656 0.53906 0 1.0469-0.03125 1.5156-0.09375 0.47656-0.070313 0.89844-0.17969 1.2656-0.32812v-3.9688h-3.2031v-3.5156h8.2031z"/>
  </symbol>
  <symbol id="g" overflow="visible">
   <path d="m17.75-9.3281v9.3281h-4.9219v-7.1406c0-1.3203-0.03125-2.2344-0.09375-2.7344s-0.16797-0.86719-0.3125-1.1094c-0.1875-0.3125-0.44922-0.55469-0.78125-0.73438-0.32422-0.17578-0.69531-0.26562-1.1094-0.26562-1.0234 0-1.8242 0.39844-2.4062 1.1875-0.58594 0.78125-0.875 1.8711-0.875 3.2656v7.5312h-4.8906v-15.312h4.8906v2.2344c0.73828-0.88281 1.5195-1.5391 2.3438-1.9688 0.83203-0.42578 1.75-0.64062 2.75-0.64062 1.7695 0 3.1133 0.54688 4.0312 1.6406 0.91406 1.0859 1.375 2.6562 1.375 4.7188z"/>
  </symbol>
  <symbol id="s" overflow="visible">
   <path d="m12.766-2.5938c-0.66797 0.88672-1.4062 1.543-2.2188 1.9688-0.8125 0.41797-1.7578 0.625-2.8281 0.625-1.8672 0-3.4062-0.73438-4.625-2.2031-1.2188-1.4766-1.8281-3.3516-1.8281-5.625 0-2.2891 0.60938-4.1641 1.8281-5.625 1.2188-1.4688 2.7578-2.2031 4.625-2.2031 1.0703 0 2.0156 0.21484 2.8281 0.64062 0.8125 0.41797 1.5508 1.0742 2.2188 1.9688v-2.2656h4.9219v13.766c0 2.457-0.77734 4.3359-2.3281 5.6406-1.5547 1.3008-3.8086 1.9531-6.7656 1.9531-0.94922 0-1.8711-0.074219-2.7656-0.21875-0.89844-0.14844-1.7969-0.37109-2.7031-0.67188v-3.8125c0.86328 0.48828 1.7031 0.85156 2.5156 1.0938 0.82031 0.23828 1.6484 0.35938 2.4844 0.35938 1.6016 0 2.7734-0.35156 3.5156-1.0469 0.75-0.69922 1.125-1.7969 1.125-3.2969zm-3.2188-9.5312c-1.0117 0-1.8047 0.375-2.375 1.125-0.5625 0.74219-0.84375 1.7969-0.84375 3.1719 0 1.3984 0.26953 2.4609 0.8125 3.1875 0.55078 0.71875 1.3516 1.0781 2.4062 1.0781 1.0195 0 1.8125-0.36719 2.375-1.1094 0.5625-0.75 0.84375-1.8008 0.84375-3.1562 0-1.375-0.28125-2.4297-0.84375-3.1719-0.5625-0.75-1.3555-1.125-2.375-1.125z"/>
  </symbol>
  <symbol id="r" overflow="visible">
   <path d="m12.422-21.281v3.2188h-2.7031c-0.6875 0-1.1719 0.125-1.4531 0.375-0.27344 0.25-0.40625 0.6875-0.40625 1.3125v1.0625h4.1875v3.5h-4.1875v11.812h-4.8906v-11.812h-2.4375v-3.5h2.4375v-1.0625c0-1.6641 0.46094-2.8984 1.3906-3.7031 0.92578-0.80078 2.3672-1.2031 4.3281-1.2031z"/>
  </symbol>
  <symbol id="q" overflow="visible">
   <path d="m16.547-12.766c0.61328-0.94531 1.3477-1.6719 2.2031-2.1719 0.85156-0.5 1.7891-0.75 2.8125-0.75 1.7578 0 3.0977 0.54688 4.0156 1.6406 0.92578 1.0859 1.3906 2.6562 1.3906 4.7188v9.3281h-4.9219v-7.9844-0.35938c0.007813-0.13281 0.015625-0.32031 0.015625-0.5625 0-1.082-0.16406-1.8633-0.48438-2.3438-0.3125-0.48828-0.82422-0.73438-1.5312-0.73438-0.92969 0-1.6484 0.38672-2.1562 1.1562-0.51172 0.76172-0.77344 1.8672-0.78125 3.3125v7.5156h-4.9219v-7.9844c0-1.6953-0.14844-2.7852-0.4375-3.2656-0.29297-0.48828-0.8125-0.73438-1.5625-0.73438-0.9375 0-1.6641 0.38672-2.1719 1.1562-0.51172 0.76172-0.76562 1.8594-0.76562 3.2969v7.5312h-4.9219v-15.312h4.9219v2.2344c0.60156-0.86328 1.2891-1.5156 2.0625-1.9531 0.78125-0.4375 1.6406-0.65625 2.5781-0.65625 1.0625 0 2 0.25781 2.8125 0.76562 0.8125 0.51172 1.4258 1.2305 1.8438 2.1562z"/>
  </symbol>
  <symbol id="p" overflow="visible">
   <path d="m17.75-9.3281v9.3281h-4.9219v-7.1094c0-1.3438-0.03125-2.2656-0.09375-2.7656s-0.16797-0.86719-0.3125-1.1094c-0.1875-0.3125-0.44922-0.55469-0.78125-0.73438-0.32422-0.17578-0.69531-0.26562-1.1094-0.26562-1.0234 0-1.8242 0.39844-2.4062 1.1875-0.58594 0.78125-0.875 1.8711-0.875 3.2656v7.5312h-4.8906v-21.281h4.8906v8.2031c0.73828-0.88281 1.5195-1.5391 2.3438-1.9688 0.83203-0.42578 1.75-0.64062 2.75-0.64062 1.7695 0 3.1133 0.54688 4.0312 1.6406 0.91406 1.0859 1.375 2.6562 1.375 4.7188z"/>
  </symbol>
  <symbol id="o" overflow="visible">
   <path d="m2.5781-20.406h5.875l7.4219 14v-14h4.9844v20.406h-5.875l-7.4219-14v14h-4.9844z"/>
  </symbol>
  <symbol id="n" overflow="visible">
   <path d="m2.1875-5.9688v-9.3438h4.9219v1.5312c0 0.83594-0.007813 1.875-0.015625 3.125-0.011719 1.25-0.015625 2.0859-0.015625 2.5 0 1.2422 0.03125 2.1328 0.09375 2.6719 0.070313 0.54297 0.17969 0.93359 0.32812 1.1719 0.20703 0.32422 0.47266 0.57422 0.79688 0.75 0.32031 0.16797 0.69141 0.25 1.1094 0.25 1.0195 0 1.8203-0.39062 2.4062-1.1719 0.58203-0.78125 0.875-1.8672 0.875-3.2656v-7.5625h4.8906v15.312h-4.8906v-2.2188c-0.74219 0.89844-1.5234 1.5586-2.3438 1.9844-0.82422 0.41406-1.7344 0.625-2.7344 0.625-1.7617 0-3.1055-0.53906-4.0312-1.625-0.92969-1.082-1.3906-2.6602-1.3906-4.7344z"/>
  </symbol>
  <symbol id="m" overflow="visible">
   <path d="m2.5781-20.406h8.7344c2.5938 0 4.582 0.57812 5.9688 1.7344 1.3945 1.1484 2.0938 2.7891 2.0938 4.9219 0 2.1367-0.69922 3.7812-2.0938 4.9375-1.3867 1.1562-3.375 1.7344-5.9688 1.7344h-3.4844v7.0781h-5.25zm5.25 3.8125v5.7031h2.9219c1.0195 0 1.8047-0.25 2.3594-0.75 0.5625-0.5 0.84375-1.2031 0.84375-2.1094 0-0.91406-0.28125-1.6172-0.84375-2.1094-0.55469-0.48828-1.3398-0.73438-2.3594-0.73438z"/>
  </symbol>
  <symbol id="l" overflow="visible">
   <path d="m2.3594-15.312h4.8906v15.031c0 2.0508-0.49609 3.6172-1.4844 4.7031-0.98047 1.082-2.4062 1.625-4.2812 1.625h-2.4219v-3.2188h0.85938c0.92578 0 1.5625-0.21094 1.9062-0.625 0.35156-0.41797 0.53125-1.2461 0.53125-2.4844zm0-5.9688h4.8906v4h-4.8906z"/>
  </symbol>
  <symbol id="k" overflow="visible">
   <path d="m14.719-14.828v3.9844c-0.65625-0.45703-1.3242-0.79688-2-1.0156-0.66797-0.21875-1.3594-0.32812-2.0781-0.32812-1.3672 0-2.4336 0.40234-3.2031 1.2031-0.76172 0.79297-1.1406 1.9062-1.1406 3.3438 0 1.4297 0.37891 2.543 1.1406 3.3438 0.76953 0.79297 1.8359 1.1875 3.2031 1.1875 0.75781 0 1.4844-0.10938 2.1719-0.32812 0.6875-0.22656 1.3203-0.56641 1.9062-1.0156v4c-0.76172 0.28125-1.5391 0.48828-2.3281 0.625-0.78125 0.14453-1.5742 0.21875-2.375 0.21875-2.7617 0-4.9219-0.70703-6.4844-2.125-1.5547-1.4141-2.3281-3.3828-2.3281-5.9062 0-2.5312 0.77344-4.5039 2.3281-5.9219 1.5625-1.4141 3.7227-2.125 6.4844-2.125 0.80078 0 1.5938 0.074219 2.375 0.21875 0.78125 0.13672 1.5547 0.35156 2.3281 0.64062z"/>
  </symbol>
 </defs>
 <g>
  <path d="m597.5 292.21c-0.47656-0.8125-9.6836-16.32-26.125-26.477 14.332-13.008 20.531-29.91 20.848-30.801 0.79688-2.2188 0.62109-4.6641-0.47656-6.7461-1.0938-2.082-3.0195-3.6133-5.293-4.2109-0.4375-0.11719-4.6875-1.1914-11.043-1.7969-8.6992-75.82-71.27-182.07-214.86-182.07-144.54 0-204.69 92.758-212.31 161.14-7.1328-0.33984-13.332 1.5859-17.758 6.0156-9.0117 9.0117-7.8047 25.316 2.2891 42.145-19.039 4.7617-31.426 15.438-31.426 28.203 0 12.758 12.387 23.441 31.434 28.203-10.102 16.828-11.312 33.137-2.2969 42.145 5.168 5.1641 12.777 6.8594 21.465 5.5625l27.867 110.27c7.8398 34.613 28.637 56.117 54.309 56.117h255.43c29.395 0 47.414-29.203 51.816-56.52l33.324-138.19c0.30078-1.2539 0.375-2.5039 0.25781-3.7109l0.003906-11.699c10.73-1.9883 18.289-5.4766 18.859-5.7461 2.1289-1.0078 3.7422-2.8555 4.4336-5.1055 0.71094-2.2539 0.43359-4.6953-0.75391-6.7305zm-236.95-229.71c127.77 0 183.91 93.102 192.37 160.47-1.2148 0.21875-2.4375 0.46484-3.668 0.75781 0.93359-19.332-6.6367-35.672-7.0391-36.52-1.0078-2.1289-2.8633-3.7422-5.1055-4.4336-2.2461-0.6875-4.6797-0.42188-6.7188 0.76562-0.81641 0.46875-16.32 9.6758-26.48 26.117-13.008-14.32-29.91-20.52-30.793-20.836-2.2188-0.79687-4.6641-0.62891-6.7461 0.47656-2.082 1.0977-3.6172 3.0195-4.2109 5.293-0.24219 0.90625-4.6719 18.258-0.19531 37.199-19.434-1.0039-35.727 6.6289-36.574 7.0352-2.1328 1.0039-3.7422 2.8555-4.4414 5.1055-0.69922 2.2461-0.42188 4.6875 0.76562 6.7188 0.47656 0.8125 9.5977 16.184 26.188 26.426-3.5781 3.2383-6.6484 6.7188-9.2383 10.137 0.14062-1.5664 0.066406-3.1523-0.23438-4.7383-1.8711-9.7383-11.641-16.145-25.66-17.59 4.2227-13.445 2.2109-24.965-5.9961-30.535-8.2148-5.5703-19.668-3.1992-30.598 5.6992-1.0977-2.1016-2.2773-4.043-3.5391-5.8086 4.8555-16.051 2.4062-29.141 2.2891-29.746-0.86719-4.4336-5.0977-7.3594-9.5547-6.6914-1.0078 0.15625-20.41 3.3672-37 16.16-7.2617-19.656-22.004-32.676-22.766-33.348-1.7695-1.5391-4.082-2.2734-6.4609-2.0117-2.3398 0.26172-4.457 1.5-5.8477 3.4062-0.59375 0.81641-11.984 16.703-14.684 37.613-0.55859-0.25781-1.1211-0.50781-1.6914-0.75781-0.73828-4.5469-2.6328-8.5117-5.7227-11.609-9.0234-9.0156-25.324-7.8047-42.145 2.2969-4.7617-19.039-15.438-31.426-28.203-31.426-12.758 0-23.445 12.387-28.195 31.426-0.85547-0.51562-1.7031-0.90234-2.5547-1.3711 4.3125-60.121 57.473-145.68 190.45-145.68zm66.328 250.77-2.2305 0.003906c-1.0469-1.6641-2.2383-3.332-3.5898-4.9883 3.0078-1.5664 5.6797-3.3164 7.9805-5.1953-1.2891 2.7422-1.9531 4.5547-2.0508 4.8281-0.62109 1.7344-0.64844 3.6172-0.10938 5.3516zm-26.152-1.5664c5.957 4.8398 9.3359 9.5039 10.98 12.875 0.13281 0.37891 0.30859 0.75 0.5 1.1094 0.76562 1.8633 0.92578 3.2031 0.66016 3.7539-1.1758 1.2773-9.4375 1.7578-20.977-4.7148-2.7383-1.5391-6.1055-1.418-8.7266 0.30859-2.625 1.7266-4.0664 4.7695-3.7422 7.8906 1.3711 13.16-2.3242 20.539-3.9297 21.125-1.7656 0.13281-7.9023-5.4336-11.492-18.172-0.84375-3.0195-3.3164-5.3125-6.3906-5.9531-0.56641-0.11719-1.1328-0.17188-1.6953-0.17188-2.5039 0-4.9102 1.1211-6.5234 3.1094-8.332 10.27-16.16 12.875-17.73 12.145-1.2812-1.1797-1.7656-9.4258 4.7148-20.984 1.5273-2.7383 1.418-6.1055-0.3125-8.7266-1.7188-2.6133-4.7148-4.0664-7.8867-3.7422-13.16 1.3828-20.539-2.3359-21.117-3.9375-0.054688-1.7422 5.4492-7.9062 18.168-11.484 3.0234-0.85156 5.3125-3.3164 5.9531-6.3906 0.63281-3.0742-0.5-6.2422-2.9336-8.2227-10.289-8.3438-12.879-16.184-12.145-17.73 1.1914-1.2812 9.4453-1.7578 20.984 4.7148 2.7266 1.5391 6.1055 1.4219 8.7266-0.30859 2.6211-1.7266 4.0664-4.7695 3.7422-7.8906-1.3711-13.148 2.3281-20.535 3.9375-21.117 0.51562 0.027344 1.7539 0.63281 3.1406 2.0391 0.24219 0.29688 0.5 0.57812 0.77734 0.83984 2.4648 2.8281 5.4648 7.8125 7.5703 15.289 0.85156 3.0195 3.3203 5.3125 6.3945 5.9531 3.0703 0.62109 6.2422-0.5 8.2227-2.9336 8.3047-10.242 16.121-12.852 17.742-12.137 1.2695 1.2227 1.7305 9.457-4.7305 20.973-1.5273 2.7383-1.418 6.1055 0.3125 8.7266s4.7891 4.0898 7.8867 3.7344c13.148-1.3555 20.547 2.3281 21.125 3.9375 0.0625 1.7422-5.4375 7.9062-18.168 11.492-3.0234 0.85156-5.3125 3.3164-5.9531 6.3906-0.64844 3.0703 0.47656 6.2344 2.9141 8.2109zm-105.83-47.984c1.4219-1.6523 3.0898-3.0352 4.9219-4.1328-1.9805 7.5 0.95703 16.594 8.082 25.355-4.5078 2.3516-8.2617 5.0977-11.129 8.1016-0.63281-0.51953-1.1992-1.0977-1.7188-1.7578 3.3945-4.0977 5.2578-8.7422 5.2578-13.688 0.007813-5.0273-1.9219-9.7305-5.4141-13.879zm-94.07 53.586c-21.891 0-39.703-17.812-39.703-39.703s17.812-39.711 39.703-39.711c21.895 0 39.711 17.812 39.711 39.711 0 21.895-17.812 39.703-39.711 39.703zm13.523 15.164c-1.9727 17.293-9.043 27.816-13.523 27.816s-11.555-10.523-13.52-27.816c8.6641 2.1367 18.383 2.1367 27.043 0zm-27.043-109.74c1.9648-17.293 9.0391-27.809 13.52-27.809s11.555 10.523 13.523 27.809c-4.3281-1.0703-8.8633-1.6367-13.523-1.6367-4.6602 0-9.1836 0.56641-13.52 1.6367zm42.758 6.5273c13.629-10.848 26.066-13.277 29.238-10.129 3.1602 3.1641 0.71094 15.613-10.129 29.23-4.7383-7.793-11.305-14.363-19.109-19.102zm19.105 77.578c4.9883 6.2734 8.1992 12.293 9.9062 17.27 0.035157 0.10547 0.074219 0.20703 0.10547 0.30859 1.8945 5.6914 1.793 9.9727 0.11719 11.652-3.1641 3.1602-15.605 0.71875-29.23-10.125 7.8008-4.7383 14.367-11.305 19.102-19.105zm6.5312-15.715c1.0625-4.3359 1.6367-8.8633 1.6367-13.523s-0.57031-9.1914-1.6367-13.523c17.293 1.9727 27.816 9.043 27.816 13.523 0 1.5078-1.1875 3.3047-3.4219 5.1016-0.34766 0.22266-0.67187 0.46875-0.98047 0.73828-4.625 3.3047-12.73 6.4688-23.414 7.6836zm25.859 10.188c2.375 3.1367 5.207 5.5938 8.7422 7.5977 0.050781 0.62109 0.13281 1.2422 0.25391 1.8633 0.15625 0.8125 0.36328 1.6016 0.62891 2.3633l-18.43 0.027344c-1.0938-2.4297-2.3867-4.8945-3.8711-7.3633 4.6523-1.1562 8.9023-2.6758 12.676-4.4883zm-0.23438-47.535c-3.7188-1.7656-7.8906-3.2422-12.441-4.3789 2.6055-4.3438 4.6211-8.6562 6.0195-12.82 2.3203 1.293 4.5234 2.7734 6.6289 4.4531 2.6602 2.1094 6.3008 2.1992 9.2695 0.54688 2.9688-1.6445 4.625-5.1406 4.2461-8.5195-1.3984-12.383 2.832-24.305 6.6211-32.105 5.4258 6.7656 12.207 17.512 13.641 30.219 0.35938 3.3867 2.8711 6.0352 6.1445 6.9883 3.2773 0.95312 6.9336-0.35156 9.0508-3.0117 8.0469-10.09 20.008-15.566 28.246-18.316-0.11328 1.8555-0.32422 3.9258-0.69922 6.1445-2.5195-0.67188-5.1055-0.79688-7.7109-0.29297-9.5469 1.8242-15.898 11.266-17.504 24.852-2.7734-2.1328-5.8281-3.8594-9.1211-5.1367-15.215-5.9141-32.449-1.0234-42.391 11.379zm-138.96-34.641c0.83594-0.83594 2.3242-1.2812 4.3125-1.2812 5.5156 0 14.902 3.4336 24.922 11.406-7.8008 4.7305-14.363 11.305-19.102 19.102-10.848-13.625-13.297-26.062-10.133-29.227zm-24.211 58.469c0-4.4805 10.523-11.555 27.816-13.523-1.0625 4.3359-1.6367 8.8633-1.6367 13.523 0 4.6602 0.57031 9.1914 1.6367 13.523-17.297-1.9688-27.816-9.043-27.816-13.523zm24.211 58.465c-3.1602-3.1602-0.71094-15.602 10.129-29.227 4.7383 7.8008 11.305 14.371 19.102 19.102-13.621 10.844-26.066 13.285-29.23 10.125zm347.2 161.43h-255.43c-13.137 0-22.559-11.723-28.156-25.121h309.98c-5.082 13.652-14.539 25.121-26.387 25.121zm32.004-47.52h-322.14l-24.465-96.824c5.4492 14.711 14.875 23.934 25.859 23.934 12.762 0 23.445-12.387 28.203-31.434 16.828 10.098 33.137 11.305 42.145 2.2891 4.4727-4.4727 6.4297-10.746 6.0273-17.988l38.551-0.0625c-3.6055 12.785-1.4375 23.645 6.457 29.008 8.2109 5.5703 19.66 3.1992 30.598-5.6992 6.5195 12.492 16.105 19.215 25.82 17.348 9.7344-1.8633 16.145-11.641 17.59-25.66 13.434 4.2188 24.969 2.207 30.535-5.9961 1.793-2.6484 2.7656-5.6328 2.957-8.8242l40.531-0.15234c1.4297 14.285 6.418 25.047 6.7383 25.738 1.0078 2.1289 2.8555 3.7422 5.1055 4.4336 2.2461 0.69922 4.6914 0.42578 6.7188-0.76562 0.81641-0.46875 16.219-9.6133 26.441-26.156 11.207 12.355 25.289 18.664 29.562 20.391zm25.77-157.5c-0.0625-0.023437-0.33203-0.11328-0.39062-0.13281-3.2383-1.0469-6.6992 0.17969-8.8945 2.7891-2.1953 2.6133-2.4805 6.4805-0.89062 9.4961 5.1445 9.7773 5.6719 20.949 5.1406 28.891-6.875-4.0938-15.848-10.949-21.102-20.934-1.5742-3.0195-4.918-4.5703-8.2656-4.2773-3.3867 0.30859-6.3242 2.8281-7.332 6.082-3.2773 10.562-10.812 18.84-16.812 24.074-1.9766-7.707-3.5039-18.781-0.24219-29.309 0.050781-0.14453 0.17187-0.53125 0.21094-0.68359 0.90625-3.2305-0.37891-6.5859-2.9961-8.6953-1.4883-1.2031-3.3711-1.8047-5.2578-1.8047-1.418 0-2.8438 0.33594-4.1172 1.0078-9.7734 5.1445-20.934 5.668-28.879 5.1406 4.0898-6.875 10.941-15.848 20.926-21.102 3.0117-1.5742 4.582-4.8711 4.2773-8.2656-0.30859-3.3867-2.832-6.3164-6.082-7.3242-10.562-3.2773-18.84-10.812-24.078-16.812 7.707-1.9766 18.781-3.5117 29.293-0.24609 0.10547 0.035156 0.44141 0.14453 0.54688 0.17188 3.207 0.97266 6.6367-0.28125 8.793-2.8906 2.1523-2.6133 2.418-6.4453 0.83984-9.4414-5.1445-9.7773-5.6719-20.949-5.1406-28.891 6.875 4.0938 15.855 10.949 21.105 20.934 1.5664 3.0117 4.832 4.5586 8.2656 4.2773 3.3828-0.30859 6.3164-2.8281 7.3242-6.082 3.2695-10.543 10.793-18.809 16.777-24.051 1.9648 7.7734 3.4727 18.973 0.14453 29.668-1.043 3.2461 0.17188 6.7031 2.7891 8.8945 2.6094 2.1914 6.4727 2.4922 9.4961 0.89453 9.7539-5.1406 20.898-5.6797 28.863-5.1406-4.1055 6.8828-10.977 15.875-20.91 21.102-3.0117 1.5742-4.5742 4.8711-4.2734 8.2656 0.30859 3.3867 2.832 6.3164 6.082 7.3242 10.562 3.2773 18.84 10.812 24.074 16.805-7.6758 1.9961-18.762 3.5312-29.285 0.26562zm-37.734-56.145c-19.355 0-35.102 15.746-35.102 35.102 0 19.355 15.746 35.102 35.102 35.102s35.102-15.746 35.102-35.102c0-19.355-15.746-35.102-35.102-35.102zm0 53.395c-10.09 0-18.301-8.2109-18.301-18.301 0-10.09 8.2109-18.301 18.301-18.301s18.301 8.2109 18.301 18.301c0 10.094-8.207 18.301-18.301 18.301zm-128.5-17.582c-6.5391-4.4414-14.422-6.0664-22.18-4.582-7.7617 1.4883-14.48 5.9062-18.922 12.441-9.1602 13.5-5.6289 31.941 7.8672 41.098 5.0781 3.4453 10.852 5.0977 16.57 5.0977 9.4805 0 18.805-4.543 24.527-12.957 4.4414-6.5391 6.0664-14.422 4.582-22.18-1.4883-7.7695-5.9102-14.484-12.445-18.918zm-6.0391 31.656c-3.9609 5.8398-11.918 7.3594-17.762 3.3984-5.8359-3.9609-7.3594-11.93-3.3984-17.762 1.9219-2.8281 4.8203-4.7383 8.1797-5.375 3.3594-0.64844 6.7656 0.0625 9.5859 1.9805 2.8281 1.9219 4.7383 4.8203 5.375 8.1758 0.64062 3.3555-0.0625 6.7578-1.9805 9.582z"/>
  <use x="70" y="644" xlink:href="#w"/>
  <use x="90.550781" y="644" xlink:href="#c"/>
  <use x="104.359375" y="644" xlink:href="#b"/>
  <use x="123.347656" y="644" xlink:href="#f"/>
  <use x="142.242188" y="644" xlink:href="#d"/>
  <use x="155.628906" y="644" xlink:href="#b"/>
  <use x="174.617188" y="644" xlink:href="#j"/>
  <use x="204.410156" y="644" xlink:href="#e"/>
  <use x="224.453125" y="644" xlink:href="#i"/>
  <use x="252.453125" y="644" xlink:href="#h"/>
  <use x="285.632812" y="644" xlink:href="#v"/>
  <use x="307.304688" y="644" xlink:href="#u"/>
  <use x="316.898438" y="644" xlink:href="#e"/>
  <use x="336.945312" y="644" xlink:href="#b"/>
  <use x="355.933594" y="644" xlink:href="#c"/>
  <use x="369.742188" y="644" xlink:href="#d"/>
  <use x="383.125" y="644" xlink:href="#a"/>
  <use x="412.109375" y="644" xlink:href="#t"/>
  <use x="435.09375" y="644" xlink:href="#a"/>
  <use x="454.328125" y="644" xlink:href="#g"/>
  <use x="474.265625" y="644" xlink:href="#s"/>
  <use x="494.304687" y="644" xlink:href="#a"/>
  <use x="513.542969" y="644" xlink:href="#c"/>
  <use x="527.351562" y="644" xlink:href="#f"/>
  <use x="70" y="672" xlink:href="#r"/>
  <use x="82.183594" y="672" xlink:href="#c"/>
  <use x="95.992188" y="672" xlink:href="#a"/>
  <use x="115.226562" y="672" xlink:href="#q"/>
  <use x="154.152344" y="672" xlink:href="#d"/>
  <use x="167.535156" y="672" xlink:href="#p"/>
  <use x="187.46875" y="672" xlink:href="#b"/>
  <use x="216.207031" y="672" xlink:href="#o"/>
  <use x="239.640625" y="672" xlink:href="#a"/>
  <use x="258.878906" y="672" xlink:href="#n"/>
  <use x="278.8125" y="672" xlink:href="#g"/>
  <use x="308.492188" y="672" xlink:href="#m"/>
  <use x="329.015625" y="672" xlink:href="#c"/>
  <use x="342.820312" y="672" xlink:href="#a"/>
  <use x="362.058594" y="672" xlink:href="#l"/>
  <use x="371.65625" y="672" xlink:href="#b"/>
  <use x="390.648438" y="672" xlink:href="#k"/>
  <use x="407.242188" y="672" xlink:href="#d"/>
 </g>
</svg>
